<?xml version="1.0" standalone="no"?>
<!DOCTYPE svg PUBLIC "-//W3C//DTD SVG 20010904//EN"
 "http://www.w3.org/TR/2001/REC-SVG-20010904/DTD/svg10.dtd">
<svg version="1.0" xmlns="http://www.w3.org/2000/svg"
 width="753.000000pt" height="554.000000pt" viewBox="0 0 753.000000 554.000000"
 preserveAspectRatio="xMidYMid meet">
<metadata>
Created by potrace 1.14, written by Peter Selinger 2001-2017
</metadata>
<g transform="translate(0.000000,554.000000) scale(0.100000,-0.100000)"
fill="#000000" stroke="none">
<path d="M190 5380 l0 -130 154 0 c139 0 155 -2 159 -17 4 -17 5 -17 6 0 1 15
15 17 156 17 l155 0 0 130 0 130 -315 0 -315 0 0 -130z m620 0 l0 -120 -305 0
-305 0 0 120 0 120 305 0 305 0 0 -120z"/>
<path d="M2390 5380 l0 -130 354 0 c329 0 355 -1 359 -17 4 -17 5 -17 6 0 1
16 25 17 351 17 l350 0 0 130 0 130 -710 0 -710 0 0 -130z m1410 0 l0 -120
-700 0 -700 0 0 120 0 120 700 0 700 0 0 -120z"/>
<path d="M4530 5380 l0 -130 284 0 c263 0 285 -1 289 -17 4 -17 5 -17 6 0 1
16 22 17 286 17 l285 0 0 130 0 130 -575 0 -575 0 0 -130z m1140 0 l0 -120
-565 0 -565 0 0 120 0 120 565 0 565 0 0 -120z"/>
<path d="M2960 5050 c0 -20 -8 -20 -1202 -23 l-1203 -2 1203 -3 c1195 -2 1202
-2 1202 -22 0 -25 2 -25 50 0 l40 20 0 -324 c0 -301 -1 -325 -17 -329 -10 -3
1 -3 24 0 34 4 42 2 46 -13 4 -17 5 -17 6 -1 1 11 9 17 26 17 24 0 25 2 25 70
0 39 2 70 5 70 3 0 23 -9 45 -20 48 -24 67 -26 25 -2 -28 16 -45 42 -27 42 5
0 17 7 28 15 11 10 2 8 -23 -5 -23 -11 -45 -20 -48 -20 -3 0 -5 92 -5 205 l0
205 900 0 c893 0 900 0 900 -20 0 -25 2 -25 50 0 l40 20 0 -204 c0 -186 -2
-205 -17 -210 -10 -2 -1 -2 21 1 27 4 41 1 47 -8 6 -10 9 -11 9 -1 0 6 11 12
25 12 18 0 25 5 25 20 0 11 2 20 5 20 3 0 23 -9 45 -20 22 -11 42 -20 45 -20
3 0 5 9 5 20 0 19 7 20 150 20 l150 0 0 170 0 170 -200 0 c-193 0 -200 1 -200
20 0 15 -7 20 -24 20 -15 0 -26 7 -29 18 -4 16 -5 16 -6 0 -1 -24 -41 -23 -91
2 -22 11 -42 20 -45 20 -3 0 -5 -9 -5 -20 0 -20 -7 -20 -900 -20 l-900 0 0 45
c0 41 -2 45 -24 45 -13 0 -27 6 -29 13 -4 10 -6 10 -6 0 -1 -19 -47 -16 -91 7
-48 25 -50 25 -50 0z m190 -350 l0 -320 -45 0 -45 0 0 320 0 320 45 0 45 0 0
-320z m2000 30 l0 -200 -45 0 -45 0 0 200 0 200 45 0 45 0 0 -200z m400 0 l0
-160 -145 0 c-138 0 -145 1 -145 20 0 11 -2 20 -5 20 -3 0 -23 -9 -45 -20 -22
-11 -42 -20 -45 -20 -3 0 -5 72 -5 160 l0 160 195 0 195 0 0 -160z"/>
<path d="M2960 3440 c0 -20 -8 -20 -1202 -23 l-1203 -2 1203 -3 c1195 -2 1202
-2 1202 -22 0 -25 2 -25 50 0 l40 20 0 -404 c0 -377 -1 -405 -17 -410 -10 -2
-1 -2 21 1 27 4 41 1 47 -8 6 -10 9 -11 9 -1 0 6 11 12 25 12 25 0 25 1 25 80
0 44 2 80 5 80 3 0 23 -9 45 -20 48 -24 67 -26 25 -2 -28 16 -45 42 -27 42 5
0 17 7 28 15 11 10 2 8 -23 -5 -23 -11 -45 -20 -48 -20 -3 0 -5 117 -5 260 l0
260 900 0 c893 0 900 0 900 -20 0 -25 2 -25 50 0 l40 20 0 -259 c0 -239 -1
-260 -17 -264 -10 -3 1 -3 24 0 34 4 42 2 46 -13 4 -17 5 -17 6 -1 1 11 9 17
26 17 24 0 25 3 25 60 0 33 2 60 5 60 3 0 23 -9 45 -20 22 -11 42 -20 45 -20
3 0 5 9 5 20 0 19 7 20 150 20 l150 0 0 180 0 180 -200 0 -200 0 0 25 c0 20
-5 25 -24 25 -15 0 -26 7 -29 18 -4 16 -5 16 -6 0 -1 -24 -41 -23 -91 2 -22
11 -42 20 -45 20 -3 0 -5 -9 -5 -20 0 -20 -7 -20 -900 -20 l-900 0 0 60 c0 57
-1 60 -24 60 -15 0 -26 7 -29 18 -4 16 -5 16 -6 0 -1 -24 -41 -23 -91 2 -48
25 -50 25 -50 0z m190 -430 l0 -400 -45 0 -45 0 0 400 0 400 45 0 45 0 0 -400z
m2000 25 l0 -255 -45 0 -45 0 0 255 0 255 45 0 45 0 0 -255z m400 35 l0 -170
-145 0 c-138 0 -145 1 -145 20 0 11 -2 20 -5 20 -3 0 -23 -9 -45 -20 -22 -11
-42 -20 -45 -20 -3 0 -5 77 -5 170 l0 170 195 0 195 0 0 -170z"/>
</g>
</svg>
